<?xml version="1.0" standalone="no"?>

<svg version="1.0" xmlns="http://www.w3.org/2000/svg"
 width="156pt" height="73pt" viewBox="0 0 1380.000000 908.000000"
 preserveAspectRatio="xMidYMid meet">

<g transform="translate(0.000000,908.000000) scale(0.100000,-0.100000)"
fill="#000000" stroke="none">
<path d="M9836 9069 c-1485 -123 -3403 -1001 -5001 -2289 -381 -307 -622 -525
-986 -889 -390 -391 -799 -854 -799 -906 0 -33 41 -61 68 -46 11 6 64 61 119
123 1110 1255 2681 2349 4268 2971 681 267 1300 427 1895 489 158 16 579 16
730 -1 342 -38 614 -123 816 -257 137 -91 285 -263 349 -407 77 -175 108 -337
108 -572 0 -200 -12 -308 -59 -542 -87 -434 -304 -1025 -575 -1565 -74 -148
-76 -188 -8 -188 33 0 34 2 162 215 452 757 743 1430 852 1974 54 266 69 552
41 754 -49 351 -202 621 -459 813 -213 159 -489 262 -828 309 -137 19 -538 27
-693 14z m638 -114 c1124 -132 1505 -886 1090 -2158 -74 -225 -253 -667 -285
-701 -5 -6 9 44 31 110 203 602 254 1137 144 1522 -29 102 -96 246 -155 334
-56 84 -197 222 -287 282 -406 269 -1064 360 -1837 255 -792 -107 -1702 -416
-2650 -898 -440 -224 -794 -431 -1187 -693 -98 -65 -178 -117 -178 -114 0 13
385 290 648 465 445 297 802 504 1272 740 673 337 1217 546 1825 701 322 83
605 134 870 159 158 15 558 12 699 -4z"/>
<path d="M0 5645 l0 -305 390 0 390 0 0 -930 0 -930 380 0 380 0 0 930 0 930
385 0 385 0 0 305 0 305 -1155 0 -1155 0 0 -305z"/>
<path d="M4200 4715 l0 -1235 380 0 380 0 0 930 0 930 595 0 595 0 0 305 0
305 -975 0 -975 0 0 -1235z"/>
<path d="M7550 5645 l0 -305 390 0 390 0 0 -930 0 -930 380 0 380 0 0 930 0
930 388 2 387 3 3 303 2 302 -1160 0 -1160 0 0 -305z"/>
<path d="M11520 5943 c0 -6 109 -242 656 -1431 85 -184 154 -344 154 -356 0
-34 -52 -105 -99 -137 -65 -43 -132 -53 -328 -45 l-173 6 0 -249 0 -249 33 -6
c109 -20 385 -38 502 -33 348 16 507 129 666 473 22 47 224 521 450 1052 226
532 413 970 416 975 2 4 -171 7 -385 7 l-390 0 -167 -507 c-93 -280 -170 -503
-172 -498 -2 6 -80 233 -172 505 l-168 495 -411 3 c-227 1 -412 -1 -412 -5z"/>
<path d="M2715 4797 c-87 -34 -144 -95 -171 -183 -18 -60 -18 -88 2 -153 18
-62 78 -132 138 -163 22 -11 65 -23 96 -25 193 -18 336 166 278 359 -16 55
-83 126 -143 154 -56 26 -147 31 -200 11z"/>
<path d="M10506 4796 c-165 -62 -229 -272 -126 -414 113 -157 357 -143 452 25
74 132 31 294 -99 370 -56 32 -166 42 -227 19z"/>
<path d="M6710 4703 c-61 -23 -109 -95 -110 -162 0 -55 36 -118 84 -146 102
-60 226 -8 257 108 19 73 -20 155 -93 193 -27 14 -109 18 -138 7z"/>
<path d="M10308 4188 c-8 -7 -77 -83 -154 -168 -436 -489 -1021 -1016 -1619
-1460 -1293 -959 -2867 -1694 -4145 -1935 -362 -68 -607 -90 -943 -82 -359 8
-607 50 -840 143 -776 310 -908 1111 -402 2444 78 205 167 412 297 687 75 159
99 219 94 237 -7 27 -35 41 -64 32 -18 -6 -198 -299 -330 -536 -384 -694 -617
-1302 -699 -1830 -27 -175 -25 -529 5 -665 88 -408 301 -682 667 -861 277
-135 587 -194 1015 -194 524 1 1071 102 1740 321 1239 407 2536 1128 3681
2046 347 277 586 491 933 833 369 365 827 874 843 939 4 18 0 29 -17 43 -26
21 -41 23 -62 6z m-8323 -1362 c-127 -397 -185 -719 -185 -1024 0 -328 68
-580 211 -787 179 -259 475 -435 874 -518 220 -47 377 -61 660 -61 267 0 417
12 685 55 1164 184 2616 801 3885 1649 91 61 165 108 165 106 0 -2 -73 -57
-162 -123 -1497 -1100 -3164 -1838 -4518 -2000 -204 -24 -638 -24 -805 0 -300
45 -549 132 -738 259 -79 53 -232 206 -281 281 -83 127 -138 268 -173 443 -21
109 -24 412 -5 549 35 251 110 533 215 815 64 171 206 504 213 498 2 -2 -17
-66 -41 -142z"/>
</g>
</svg>
